<?xml version="1.0" encoding="UTF-8"?>
<svg xmlns="http://www.w3.org/2000/svg" xmlns:xlink="http://www.w3.org/1999/xlink" width="16pt" height="16pt" viewBox="0 0 16 16" version="1.1">
<g id="surface1">
<path style=" stroke:none;fill-rule:nonzero;fill:rgb(37.254902%,59.607843%,81.960784%);fill-opacity:1;" d="M 16 8 C 16 12.417969 12.417969 16 8 16 C 3.582031 16 0 12.417969 0 8 C 0 3.582031 3.582031 0 8 0 C 12.417969 0 16 3.582031 16 8 Z M 16 8 "/>
<path style=" stroke:none;fill-rule:nonzero;fill:rgb(22.745098%,42.745098%,63.137255%);fill-opacity:1;" d="M 12.996094 4.609375 L 2.984375 4.609375 L 6.613281 8.382812 L 7.65625 9.441406 C 7.089844 9.3125 7.054688 9.230469 6.800781 9.027344 C 6.667969 8.917969 6.414062 8.625 6.023438 8.226562 C 4.8125 6.988281 2.757812 4.890625 2.757812 4.890625 L 2.757812 11.101562 L 3.015625 11.363281 L 2.984375 11.390625 L 7.582031 15.988281 C 7.722656 15.996094 7.859375 16 8 16 C 12.417969 16 16 12.417969 16 8 C 16 7.867188 15.996094 7.734375 15.988281 7.605469 Z M 12.996094 4.609375 "/>
<path style=" stroke:none;fill-rule:nonzero;fill:rgb(100%,100%,100%);fill-opacity:1;" d="M 2.757812 4.890625 L 2.757812 11.101562 L 5.785156 7.984375 Z M 2.757812 4.890625 "/>
<path style=" stroke:none;fill-rule:nonzero;fill:rgb(100%,100%,100%);fill-opacity:1;" d="M 13.242188 4.890625 L 13.242188 11.101562 L 10.226562 7.996094 Z M 13.242188 4.890625 "/>
<path style=" stroke:none;fill-rule:nonzero;fill:rgb(100%,100%,100%);fill-opacity:1;" d="M 2.984375 4.609375 L 12.996094 4.609375 L 9.0625 8.703125 C 8.78125 8.996094 8.394531 9.160156 7.988281 9.160156 C 7.585938 9.160156 7.199219 8.996094 6.917969 8.703125 Z M 2.984375 4.609375 "/>
<path style=" stroke:none;fill-rule:nonzero;fill:rgb(100%,100%,100%);fill-opacity:1;" d="M 9.289062 8.921875 C 8.949219 9.273438 8.476562 9.476562 7.988281 9.476562 C 7.503906 9.476562 7.03125 9.273438 6.691406 8.921875 L 6.027344 8.226562 L 2.984375 11.390625 L 12.996094 11.390625 L 9.953125 8.226562 Z M 9.289062 8.921875 "/>
</g>
</svg>
