<?xml version="1.0" encoding="UTF-8"?>
<svg xmlns="http://www.w3.org/2000/svg" xmlns:xlink="http://www.w3.org/1999/xlink" width="16pt" height="16pt" viewBox="0 0 16 16" version="1.1">
<g id="surface1">
<path style=" stroke:none;fill-rule:nonzero;fill:rgb(36.078431%,41.960784%,75.294118%);fill-opacity:1;" d="M 8 0.167969 C 3.582031 0.167969 0 3.761719 0 8.199219 C 0 11.746094 2.292969 14.757812 5.472656 15.820312 C 5.871094 15.894531 6.019531 15.644531 6.019531 15.433594 C 6.019531 15.242188 6.011719 14.738281 6.007812 14.066406 C 3.78125 14.550781 3.3125 12.988281 3.3125 12.988281 C 2.949219 12.0625 2.425781 11.816406 2.425781 11.816406 C 1.695312 11.316406 2.476562 11.328125 2.476562 11.328125 C 3.28125 11.382812 3.703125 12.15625 3.703125 12.15625 C 4.417969 13.382812 5.574219 13.027344 6.03125 12.820312 C 6.105469 12.300781 6.3125 11.949219 6.539062 11.746094 C 4.765625 11.542969 2.894531 10.855469 2.894531 7.777344 C 2.894531 6.902344 3.207031 6.183594 3.71875 5.621094 C 3.636719 5.417969 3.363281 4.601562 3.796875 3.496094 C 3.796875 3.496094 4.46875 3.28125 5.996094 4.320312 C 6.636719 4.140625 7.320312 4.054688 8 4.050781 C 8.679688 4.054688 9.363281 4.140625 10.003906 4.320312 C 11.53125 3.28125 12.203125 3.5 12.203125 3.5 C 12.636719 4.605469 12.363281 5.421875 12.28125 5.625 C 12.796875 6.183594 13.105469 6.902344 13.105469 7.78125 C 13.105469 10.863281 11.234375 11.542969 9.453125 11.742188 C 9.738281 11.992188 9.996094 12.480469 9.996094 13.230469 C 9.996094 14.304688 9.984375 15.167969 9.984375 15.433594 C 9.984375 15.648438 10.128906 15.898438 10.535156 15.820312 C 13.710938 14.753906 16 11.746094 16 8.199219 C 16 3.761719 12.417969 0.167969 8 0.167969 Z M 8 0.167969 "/>
</g>
</svg>
