<?xml version="1.0" encoding="UTF-8"?>
<svg xmlns="http://www.w3.org/2000/svg" xmlns:xlink="http://www.w3.org/1999/xlink" width="16pt" height="16pt" viewBox="0 0 16 16" version="1.1">
<g id="surface1">
<path style=" stroke:none;fill-rule:nonzero;fill:rgb(34.901961%,66.666667%,90.588235%);fill-opacity:1;" d="M 16 8 C 16 12.417969 12.417969 16 8 16 C 3.582031 16 0 12.417969 0 8 C 0 3.582031 3.582031 0 8 0 C 12.417969 0 16 3.582031 16 8 Z M 16 8 "/>
<path style=" stroke:none;fill-rule:nonzero;fill:rgb(23.921569%,60.392157%,89.019608%);fill-opacity:1;" d="M 8 0 C 7.644531 0 7.296875 0.0234375 6.957031 0.0664062 C 10.882812 0.578125 13.914062 3.933594 13.914062 8 C 13.914062 12.066406 10.882812 15.421875 6.957031 15.933594 C 7.296875 15.976562 7.644531 16 8 16 C 12.417969 16 16 12.417969 16 8 C 16 3.582031 12.417969 0 8 0 Z M 8 0 "/>
<path style=" stroke:none;fill-rule:nonzero;fill:rgb(98.823529%,98.823529%,98.823529%);fill-opacity:1;" d="M 5.148438 9.722656 L 2.566406 8.433594 C 2.496094 8.398438 2.496094 8.296875 2.566406 8.261719 L 12.367188 3.191406 C 12.4375 3.152344 12.523438 3.214844 12.507812 3.296875 L 10.820312 11.734375 C 10.808594 11.792969 10.742188 11.828125 10.6875 11.804688 L 8.390625 10.820312 C 8.363281 10.808594 8.332031 10.808594 8.308594 10.824219 L 5.34375 12.472656 C 5.277344 12.507812 5.199219 12.460938 5.199219 12.386719 L 5.199219 9.808594 C 5.199219 9.773438 5.179688 9.738281 5.148438 9.722656 Z M 5.148438 9.722656 "/>
<path style=" stroke:none;fill-rule:nonzero;fill:rgb(84.705882%,84.313725%,85.490196%);fill-opacity:1;" d="M 6.257812 10.59375 L 6.242188 8.015625 C 6.242188 8 6.253906 7.984375 6.265625 7.976562 L 10.449219 5.421875 C 10.496094 5.390625 10.546875 5.453125 10.507812 5.492188 L 7.324219 8.699219 C 7.320312 8.703125 7.316406 8.707031 7.316406 8.710938 L 6.769531 9.800781 L 6.347656 10.613281 C 6.324219 10.65625 6.261719 10.640625 6.257812 10.59375 Z M 6.257812 10.59375 "/>
</g>
</svg>
