<?xml version="1.0" encoding="UTF-8"?>
<svg xmlns="http://www.w3.org/2000/svg" xmlns:xlink="http://www.w3.org/1999/xlink" width="16pt" height="16pt" viewBox="0 0 16 16" version="1.1">
<g id="surface1">
<path style=" stroke:none;fill-rule:nonzero;fill:rgb(30.196078%,46.27451%,63.137255%);fill-opacity:1;" d="M 16 8 C 16 12.417969 12.417969 16 8 16 C 3.582031 16 0 12.417969 0 8 C 0 3.582031 3.582031 0 8 0 C 12.417969 0 16 3.582031 16 8 Z M 16 8 "/>
<path style=" stroke:none;fill-rule:evenodd;fill:rgb(100%,100%,100%);fill-opacity:1;" d="M 7.699219 11.507812 L 8.324219 11.507812 C 8.324219 11.507812 8.515625 11.488281 8.613281 11.382812 C 8.703125 11.289062 8.699219 11.109375 8.699219 11.109375 C 8.699219 11.109375 8.6875 10.265625 9.078125 10.140625 C 9.460938 10.019531 9.957031 10.957031 10.480469 11.316406 C 10.878906 11.589844 11.179688 11.527344 11.179688 11.527344 L 12.582031 11.507812 C 12.582031 11.507812 13.316406 11.464844 12.96875 10.886719 C 12.941406 10.839844 12.765625 10.460938 11.925781 9.679688 C 11.046875 8.863281 11.164062 8.996094 12.222656 7.582031 C 12.871094 6.722656 13.128906 6.199219 13.046875 5.972656 C 12.96875 5.757812 12.496094 5.816406 12.496094 5.816406 L 10.914062 5.824219 C 10.914062 5.824219 10.796875 5.808594 10.710938 5.859375 C 10.628906 5.910156 10.574219 6.03125 10.574219 6.03125 C 10.574219 6.03125 10.324219 6.695312 9.988281 7.261719 C 9.285156 8.457031 9.003906 8.519531 8.890625 8.445312 C 8.621094 8.273438 8.6875 7.75 8.6875 7.378906 C 8.6875 6.222656 8.863281 5.742188 8.347656 5.617188 C 8.175781 5.574219 8.050781 5.546875 7.609375 5.542969 C 7.046875 5.535156 6.570312 5.542969 6.300781 5.675781 C 6.121094 5.765625 5.980469 5.960938 6.066406 5.972656 C 6.167969 5.984375 6.40625 6.035156 6.53125 6.207031 C 6.691406 6.425781 6.6875 6.921875 6.6875 6.921875 C 6.6875 6.921875 6.78125 8.285156 6.46875 8.453125 C 6.257812 8.570312 5.964844 8.332031 5.339844 7.25 C 5.015625 6.691406 4.773438 6.078125 4.773438 6.078125 C 4.773438 6.078125 4.726562 5.964844 4.644531 5.902344 C 4.542969 5.828125 4.402344 5.804688 4.402344 5.804688 L 2.902344 5.816406 C 2.902344 5.816406 2.675781 5.820312 2.59375 5.921875 C 2.519531 6.007812 2.585938 6.1875 2.585938 6.1875 C 2.585938 6.1875 3.761719 8.9375 5.09375 10.320312 C 6.3125 11.59375 7.699219 11.507812 7.699219 11.507812 Z M 7.699219 11.507812 "/>
</g>
</svg>
