<?xml version="1.0" encoding="UTF-8"?>
<svg xmlns="http://www.w3.org/2000/svg" xmlns:xlink="http://www.w3.org/1999/xlink" width="36pt" height="36pt" viewBox="0 0 36 36" version="1.1">
<g id="surface1">
<path style=" stroke:none;fill-rule:nonzero;fill:rgb(28.627451%,6.27451%,60%);fill-opacity:1;" d="M 18.070312 0 C 8.183594 0 0 8.042969 0 17.929688 C 0 27.816406 8.183594 36 18.070312 36 C 27.957031 36 36 27.816406 36 17.929688 C 36 8.042969 27.957031 0 18.070312 0 Z M 27.5625 20.039062 L 20.179688 20.039062 L 20.179688 27.5625 C 20.179688 28.726562 19.234375 29.671875 18.070312 29.671875 C 16.90625 29.671875 15.960938 28.726562 15.960938 27.5625 L 15.960938 20.039062 L 8.4375 20.039062 C 7.273438 20.039062 6.328125 19.09375 6.328125 17.929688 C 6.328125 16.765625 7.273438 15.820312 8.4375 15.820312 L 15.960938 15.820312 L 15.960938 8.4375 C 15.960938 7.273438 16.90625 6.328125 18.070312 6.328125 C 19.234375 6.328125 20.179688 7.273438 20.179688 8.4375 L 20.179688 15.820312 L 27.5625 15.820312 C 28.726562 15.820312 29.671875 16.765625 29.671875 17.929688 C 29.671875 19.09375 28.726562 20.039062 27.5625 20.039062 Z M 27.5625 20.039062 "/>
</g>
</svg>
